<svg width="75" height="74" viewBox="0 0 75 74" fill="none" xmlns="http://www.w3.org/2000/svg">
<path fill-rule="evenodd" clip-rule="evenodd" d="M55.7704 54.8936L27.3843 64.1925C23.2946 65.5322 18.7583 63.3502 17.2522 59.3188L7.70111 33.7535C7.12483 32.211 7.21089 30.4904 7.93791 29.013C11.9474 20.8648 13.8378 17.3807 14.7187 16.3155C16.661 13.0455 19.1069 11.5925 20.0871 11.2747C21.2113 10.7351 22.2814 10.5609 22.964 10.4824L40.7376 8.43634C40.7398 8.43605 40.7865 8.43005 40.9145 8.40248C40.9804 8.38829 41.0556 8.37114 41.1549 8.34792L41.2454 8.32668L41.2464 8.32643C41.3231 8.30841 41.4152 8.28675 41.4955 8.26824C46.4997 7.11467 51.6509 9.59248 53.8733 14.2221C53.9091 14.2968 53.9499 14.3827 53.9838 14.454L54.0236 14.538C54.0675 14.6301 54.101 14.6995 54.131 14.7598C54.1893 14.8768 54.2137 14.9171 54.215 14.9191L63.7108 30.0822C69.3922 41.4346 66.5427 48.9762 61.8923 51.6003C57.2419 54.2245 53.9631 55.4898 56.4557 54.6771C56.2178 54.751 55.9882 54.8222 55.7704 54.8936ZM23.5358 15.4496L42.6187 13.1405C45.3435 12.5123 48.1556 13.865 49.3657 16.3859L49.395 16.4471C49.5771 16.8287 59.4623 32.7445 59.6867 33.1027C59.8296 33.3709 59.947 33.6513 60.0153 33.9475C60.6931 36.8876 59.0646 39.9295 56.1507 40.9506L34.4449 48.5568C31.3176 49.6527 27.8941 48.006 26.7982 44.8787L19.1919 23.1728C18.9152 22.3832 18.8134 21.5747 18.8661 20.7896C19.0078 18.6774 20.2679 16.7341 22.2509 15.7822C22.6524 15.5895 23.0934 15.5005 23.5358 15.4496Z" fill="black"/>
<path d="M34.7057 34.6169C34.508 34.9975 34.5609 35.46 34.8394 35.7861C35.1178 36.1123 35.5662 36.2371 35.9731 36.1017L39.7993 34.8281C40.0611 34.741 40.2783 34.5546 40.4041 34.309L47.7895 23.7142C47.9189 23.4617 47.9409 23.1676 47.8505 22.8986C47.7602 22.6295 47.5651 22.4084 47.3094 22.2851L36.1428 19.2205L35.267 18.8882C35.0202 18.7692 30.9107 20.0246 30.6508 20.1111C30.2435 20.2467 29.9592 20.6158 29.9322 21.0441C29.9051 21.4725 30.1407 21.8744 30.5277 22.0601L40.6662 25.3387L34.7057 34.6169Z" fill="black"/>
</svg>
