<svg width="285" height="74" viewBox="0 0 285 74" fill="none" xmlns="http://www.w3.org/2000/svg">
<path d="M257.056 43.9317L257.736 40.1317H283.336L282.616 43.9317H257.056Z" fill="black"/>
<path d="M238.111 40.1317L243.151 11.3317H247.391L245.391 22.8517C245.978 21.9983 246.818 21.2783 247.911 20.6917C249.031 20.105 250.311 19.8117 251.751 19.8117C254.231 19.8117 256.071 20.625 257.271 22.2517C258.498 23.8517 258.871 26.0383 258.391 28.8117L256.431 40.1317H252.191L254.151 29.0117C254.445 27.4117 254.231 26.145 253.511 25.2117C252.818 24.2783 251.738 23.8117 250.271 23.8117C248.805 23.8117 247.511 24.305 246.391 25.2917C245.271 26.2783 244.551 27.705 244.231 29.5717L242.351 40.1317H238.111Z" fill="black"/>
<path d="M184.718 40.6117C183.305 40.6117 182.025 40.265 180.878 39.5717C179.732 38.8783 178.812 37.8517 178.118 36.4917C177.452 35.1317 177.118 33.465 177.118 31.4917C177.118 29.9717 177.345 28.5183 177.798 27.1317C178.252 25.745 178.932 24.505 179.838 23.4117C180.745 22.2917 181.865 21.4117 183.198 20.7717C184.532 20.1317 186.078 19.8117 187.838 19.8117C189.332 19.8117 190.532 20.1183 191.438 20.7317C192.372 21.3183 193.012 22.025 193.358 22.8517L195.398 11.3317H199.638L195.438 35.0517C195.278 35.985 195.665 36.4517 196.598 36.4517H198.278L197.598 40.1317H193.878C192.998 40.1317 192.318 39.8917 191.838 39.4117C191.385 38.905 191.158 38.2783 191.158 37.5317V37.1317H190.918C190.358 38.1983 189.572 39.0517 188.558 39.6917C187.572 40.305 186.292 40.6117 184.718 40.6117ZM186.078 36.5717C187.465 36.5717 188.625 36.2117 189.558 35.4917C190.492 34.7717 191.185 33.8383 191.638 32.6917C192.118 31.5183 192.358 30.2783 192.358 28.9717C192.358 27.3183 191.945 26.0517 191.118 25.1717C190.318 24.2917 189.265 23.8517 187.958 23.8517C186.598 23.8517 185.438 24.1983 184.478 24.8917C183.518 25.5583 182.785 26.4383 182.278 27.5317C181.772 28.625 181.518 29.8117 181.518 31.0917C181.518 32.825 181.945 34.1717 182.798 35.1317C183.678 36.0917 184.772 36.5717 186.078 36.5717Z" fill="black"/>
<path d="M160.334 27.9317L161.014 24.3317H174.814L174.134 27.9317H160.334Z" fill="black"/>
<path d="M146.75 40.6117C144.91 40.6117 143.31 40.225 141.95 39.4517C140.616 38.6783 139.59 37.5983 138.87 36.2117C138.15 34.825 137.79 33.2117 137.79 31.3717C137.79 29.265 138.243 27.345 139.15 25.6117C140.083 23.8517 141.39 22.4517 143.07 21.4117C144.776 20.345 146.776 19.8117 149.07 19.8117C150.883 19.8117 152.443 20.1983 153.75 20.9717C155.083 21.745 156.11 22.825 156.83 24.2117C157.576 25.5983 157.95 27.2117 157.95 29.0517C157.95 31.1317 157.483 33.0517 156.55 34.8117C155.643 36.5717 154.35 37.985 152.67 39.0517C151.016 40.0917 149.043 40.6117 146.75 40.6117ZM146.95 36.5717C148.336 36.5717 149.523 36.2517 150.51 35.6117C151.523 34.9717 152.296 34.1183 152.83 33.0517C153.363 31.9583 153.63 30.745 153.63 29.4117C153.63 27.5983 153.176 26.225 152.27 25.2917C151.363 24.3317 150.203 23.8517 148.79 23.8517C147.403 23.8517 146.203 24.1717 145.19 24.8117C144.203 25.4517 143.443 26.3183 142.91 27.4117C142.376 28.4783 142.11 29.6783 142.11 31.0117C142.11 32.8783 142.563 34.2783 143.47 35.2117C144.403 36.1183 145.563 36.5717 146.95 36.5717Z" fill="black"/>
<path d="M113.765 48.9317L117.885 25.3717C118.045 24.4383 117.672 23.9717 116.765 23.9717H115.085L115.765 20.2917H119.405C120.312 20.2917 120.992 20.545 121.445 21.0517C121.925 21.5583 122.165 22.1717 122.165 22.8917V23.1317H122.405C122.965 22.145 123.752 21.345 124.765 20.7317C125.805 20.1183 127.099 19.8117 128.645 19.8117C130.832 19.8117 132.632 20.6117 134.045 22.2117C135.485 23.785 136.205 26.065 136.205 29.0517C136.205 30.545 135.979 31.985 135.525 33.3717C135.099 34.7583 134.445 35.9983 133.565 37.0917C132.685 38.185 131.592 39.0517 130.285 39.6917C129.005 40.305 127.499 40.6117 125.765 40.6117C124.272 40.6117 123.032 40.2917 122.045 39.6517C121.059 39.0117 120.379 38.2917 120.005 37.4917L118.005 48.9317H113.765ZM125.525 36.5717C126.885 36.5717 128.032 36.225 128.965 35.5317C129.899 34.8383 130.605 33.9317 131.085 32.8117C131.565 31.6917 131.805 30.505 131.805 29.2517C131.805 27.4917 131.365 26.1583 130.485 25.2517C129.632 24.3183 128.565 23.8517 127.285 23.8517C125.899 23.8517 124.739 24.2117 123.805 24.9317C122.872 25.625 122.165 26.545 121.685 27.6917C121.232 28.8117 121.005 30.025 121.005 31.3317C121.005 33.0383 121.445 34.345 122.325 35.2517C123.232 36.1317 124.299 36.5717 125.525 36.5717Z" fill="black"/>
<path d="M99.9408 38.4917L94.5808 20.2917H98.9408L103.221 35.3317L108.541 27.4117C108.941 26.7983 109.247 26.225 109.461 25.6917C109.701 25.1583 109.874 24.5317 109.981 23.8117L110.621 20.2917H114.981L114.501 23.0917C114.287 24.3183 113.994 25.3983 113.621 26.3317C113.247 27.265 112.714 28.265 112.021 29.3317L98.8608 48.9317H94.0208L101.061 38.4917H99.9408Z" fill="black"/>
<path d="M86.4764 40.1317C84.5298 40.1317 83.0631 39.585 82.0764 38.4917C81.0898 37.3717 80.7698 35.7583 81.1164 33.6517L82.8364 23.8917H77.8364L78.4764 20.2917H81.4364C82.7964 20.2917 83.7164 19.625 84.1964 18.2917L85.3564 15.0917H88.6364L87.7164 20.2917H95.5564L94.9164 23.8917H87.0764L85.3564 33.5717C85.2231 34.425 85.3431 35.105 85.7164 35.6117C86.1164 36.1183 86.8498 36.3717 87.9164 36.3717H92.6364L91.9964 40.1317H86.4764Z" fill="black"/>
<path fill-rule="evenodd" clip-rule="evenodd" d="M232.087 34.2117C232.087 33.3317 231.74 32.745 231.047 32.3717C230.38 31.9717 229.3 31.665 227.807 31.4517C225.994 31.185 224.487 30.585 223.287 29.6517C222.114 28.7183 221.527 27.425 221.527 25.7717C221.527 23.9583 222.26 22.5183 223.727 21.4517C225.22 20.3583 227.274 19.8117 229.887 19.8117C232.18 19.8117 233.994 20.3583 235.327 21.4517C236.66 22.545 237.3 24.0383 237.247 25.9317H233.167C233.14 25.1583 232.78 24.5317 232.087 24.0517C231.42 23.5717 230.58 23.3317 229.567 23.3317C228.42 23.3317 227.487 23.545 226.767 23.9717C226.047 24.3717 225.687 24.9583 225.687 25.7317C225.687 26.3983 226.007 26.945 226.647 27.3717C227.314 27.7717 228.42 28.0783 229.967 28.2917C231.94 28.5583 233.514 29.105 234.687 29.9317C235.887 30.7317 236.487 32.0383 236.487 33.8517C236.487 35.9583 235.66 37.6117 234.007 38.8117C232.38 40.0117 230.194 40.6117 227.447 40.6117L215.863 40.1317C214.983 40.1317 214.303 39.8917 213.823 39.4117C213.369 38.905 213.143 38.2783 213.143 37.5317V37.1317H212.903C212.343 38.1983 211.556 39.0517 210.543 39.6917C209.556 40.305 208.276 40.6117 206.703 40.6117C205.289 40.6117 204.009 40.265 202.863 39.5717C201.716 38.8783 200.796 37.8517 200.103 36.4917C199.436 35.1317 199.103 33.465 199.103 31.4917C199.103 29.9717 199.329 28.5183 199.783 27.1317C200.236 25.745 200.916 24.505 201.823 23.4117C202.729 22.2917 203.849 21.4117 205.183 20.7717C206.516 20.1317 208.063 19.8117 209.823 19.8117C211.316 19.8117 212.516 20.1183 213.423 20.7317C214.356 21.3183 214.996 22.025 215.343 22.8517L215.783 20.2917H220.063L217.423 35.0517C223.336 37.5317 231.836 37.3317 232.087 34.2117ZM211.543 35.4917C210.609 36.2117 209.449 36.5717 208.063 36.5717C206.756 36.5717 205.663 36.0917 204.783 35.1317C203.929 34.1717 203.503 32.825 203.503 31.0917C203.503 29.8117 203.756 28.625 204.263 27.5317C204.769 26.4383 205.503 25.5583 206.463 24.8917C207.423 24.1983 208.583 23.8517 209.943 23.8517C211.249 23.8517 212.303 24.2917 213.103 25.1717C213.929 26.0517 214.343 27.3183 214.343 28.9717C214.343 30.2783 214.103 31.5183 213.623 32.6917C213.169 33.8383 212.476 34.7717 211.543 35.4917Z" fill="black"/>
<path d="M257.056 43.9317L257.736 40.1317H283.336L282.616 43.9317H257.056Z" stroke="black" stroke-width="2"/>
<path d="M238.111 40.1317L243.151 11.3317H247.391L245.391 22.8517C245.978 21.9983 246.818 21.2783 247.911 20.6917C249.031 20.105 250.311 19.8117 251.751 19.8117C254.231 19.8117 256.071 20.625 257.271 22.2517C258.498 23.8517 258.871 26.0383 258.391 28.8117L256.431 40.1317H252.191L254.151 29.0117C254.445 27.4117 254.231 26.145 253.511 25.2117C252.818 24.2783 251.738 23.8117 250.271 23.8117C248.805 23.8117 247.511 24.305 246.391 25.2917C245.271 26.2783 244.551 27.705 244.231 29.5717L242.351 40.1317H238.111Z" stroke="black" stroke-width="2"/>
<path d="M184.718 40.6117C183.305 40.6117 182.025 40.265 180.878 39.5717C179.732 38.8783 178.812 37.8517 178.118 36.4917C177.452 35.1317 177.118 33.465 177.118 31.4917C177.118 29.9717 177.345 28.5183 177.798 27.1317C178.252 25.745 178.932 24.505 179.838 23.4117C180.745 22.2917 181.865 21.4117 183.198 20.7717C184.532 20.1317 186.078 19.8117 187.838 19.8117C189.332 19.8117 190.532 20.1183 191.438 20.7317C192.372 21.3183 193.012 22.025 193.358 22.8517L195.398 11.3317H199.638L195.438 35.0517C195.278 35.985 195.665 36.4517 196.598 36.4517H198.278L197.598 40.1317H193.878C192.998 40.1317 192.318 39.8917 191.838 39.4117C191.385 38.905 191.158 38.2783 191.158 37.5317V37.1317H190.918C190.358 38.1983 189.572 39.0517 188.558 39.6917C187.572 40.305 186.292 40.6117 184.718 40.6117ZM186.078 36.5717C187.465 36.5717 188.625 36.2117 189.558 35.4917C190.492 34.7717 191.185 33.8383 191.638 32.6917C192.118 31.5183 192.358 30.2783 192.358 28.9717C192.358 27.3183 191.945 26.0517 191.118 25.1717C190.318 24.2917 189.265 23.8517 187.958 23.8517C186.598 23.8517 185.438 24.1983 184.478 24.8917C183.518 25.5583 182.785 26.4383 182.278 27.5317C181.772 28.625 181.518 29.8117 181.518 31.0917C181.518 32.825 181.945 34.1717 182.798 35.1317C183.678 36.0917 184.772 36.5717 186.078 36.5717Z" stroke="black" stroke-width="2"/>
<path d="M160.334 27.9317L161.014 24.3317H174.814L174.134 27.9317H160.334Z" stroke="black" stroke-width="2"/>
<path d="M146.75 40.6117C144.91 40.6117 143.31 40.225 141.95 39.4517C140.616 38.6783 139.59 37.5983 138.87 36.2117C138.15 34.825 137.79 33.2117 137.79 31.3717C137.79 29.265 138.243 27.345 139.15 25.6117C140.083 23.8517 141.39 22.4517 143.07 21.4117C144.776 20.345 146.776 19.8117 149.07 19.8117C150.883 19.8117 152.443 20.1983 153.75 20.9717C155.083 21.745 156.11 22.825 156.83 24.2117C157.576 25.5983 157.95 27.2117 157.95 29.0517C157.95 31.1317 157.483 33.0517 156.55 34.8117C155.643 36.5717 154.35 37.985 152.67 39.0517C151.016 40.0917 149.043 40.6117 146.75 40.6117ZM146.95 36.5717C148.336 36.5717 149.523 36.2517 150.51 35.6117C151.523 34.9717 152.296 34.1183 152.83 33.0517C153.363 31.9583 153.63 30.745 153.63 29.4117C153.63 27.5983 153.176 26.225 152.27 25.2917C151.363 24.3317 150.203 23.8517 148.79 23.8517C147.403 23.8517 146.203 24.1717 145.19 24.8117C144.203 25.4517 143.443 26.3183 142.91 27.4117C142.376 28.4783 142.11 29.6783 142.11 31.0117C142.11 32.8783 142.563 34.2783 143.47 35.2117C144.403 36.1183 145.563 36.5717 146.95 36.5717Z" stroke="black" stroke-width="2"/>
<path d="M113.765 48.9317L117.885 25.3717C118.045 24.4383 117.672 23.9717 116.765 23.9717H115.085L115.765 20.2917H119.405C120.312 20.2917 120.992 20.545 121.445 21.0517C121.925 21.5583 122.165 22.1717 122.165 22.8917V23.1317H122.405C122.965 22.145 123.752 21.345 124.765 20.7317C125.805 20.1183 127.099 19.8117 128.645 19.8117C130.832 19.8117 132.632 20.6117 134.045 22.2117C135.485 23.785 136.205 26.065 136.205 29.0517C136.205 30.545 135.979 31.985 135.525 33.3717C135.099 34.7583 134.445 35.9983 133.565 37.0917C132.685 38.185 131.592 39.0517 130.285 39.6917C129.005 40.305 127.499 40.6117 125.765 40.6117C124.272 40.6117 123.032 40.2917 122.045 39.6517C121.059 39.0117 120.379 38.2917 120.005 37.4917L118.005 48.9317H113.765ZM125.525 36.5717C126.885 36.5717 128.032 36.225 128.965 35.5317C129.899 34.8383 130.605 33.9317 131.085 32.8117C131.565 31.6917 131.805 30.505 131.805 29.2517C131.805 27.4917 131.365 26.1583 130.485 25.2517C129.632 24.3183 128.565 23.8517 127.285 23.8517C125.899 23.8517 124.739 24.2117 123.805 24.9317C122.872 25.625 122.165 26.545 121.685 27.6917C121.232 28.8117 121.005 30.025 121.005 31.3317C121.005 33.0383 121.445 34.345 122.325 35.2517C123.232 36.1317 124.299 36.5717 125.525 36.5717Z" stroke="black" stroke-width="2"/>
<path d="M99.9408 38.4917L94.5808 20.2917H98.9408L103.221 35.3317L108.541 27.4117C108.941 26.7983 109.247 26.225 109.461 25.6917C109.701 25.1583 109.874 24.5317 109.981 23.8117L110.621 20.2917H114.981L114.501 23.0917C114.287 24.3183 113.994 25.3983 113.621 26.3317C113.247 27.265 112.714 28.265 112.021 29.3317L98.8608 48.9317H94.0208L101.061 38.4917H99.9408Z" stroke="black" stroke-width="2"/>
<path d="M86.4764 40.1317C84.5298 40.1317 83.0631 39.585 82.0764 38.4917C81.0898 37.3717 80.7698 35.7583 81.1164 33.6517L82.8364 23.8917H77.8364L78.4764 20.2917H81.4364C82.7964 20.2917 83.7164 19.625 84.1964 18.2917L85.3564 15.0917H88.6364L87.7164 20.2917H95.5564L94.9164 23.8917H87.0764L85.3564 33.5717C85.2231 34.425 85.3431 35.105 85.7164 35.6117C86.1164 36.1183 86.8498 36.3717 87.9164 36.3717H92.6364L91.9964 40.1317H86.4764Z" stroke="black" stroke-width="2"/>
<path fill-rule="evenodd" clip-rule="evenodd" d="M232.087 34.2117C232.087 33.3317 231.74 32.745 231.047 32.3717C230.38 31.9717 229.3 31.665 227.807 31.4517C225.994 31.185 224.487 30.585 223.287 29.6517C222.114 28.7183 221.527 27.425 221.527 25.7717C221.527 23.9583 222.26 22.5183 223.727 21.4517C225.22 20.3583 227.274 19.8117 229.887 19.8117C232.18 19.8117 233.994 20.3583 235.327 21.4517C236.66 22.545 237.3 24.0383 237.247 25.9317H233.167C233.14 25.1583 232.78 24.5317 232.087 24.0517C231.42 23.5717 230.58 23.3317 229.567 23.3317C228.42 23.3317 227.487 23.545 226.767 23.9717C226.047 24.3717 225.687 24.9583 225.687 25.7317C225.687 26.3983 226.007 26.945 226.647 27.3717C227.314 27.7717 228.42 28.0783 229.967 28.2917C231.94 28.5583 233.514 29.105 234.687 29.9317C235.887 30.7317 236.487 32.0383 236.487 33.8517C236.487 35.9583 235.66 37.6117 234.007 38.8117C232.38 40.0117 230.194 40.6117 227.447 40.6117L215.863 40.1317C214.983 40.1317 214.303 39.8917 213.823 39.4117C213.369 38.905 213.143 38.2783 213.143 37.5317V37.1317H212.903C212.343 38.1983 211.556 39.0517 210.543 39.6917C209.556 40.305 208.276 40.6117 206.703 40.6117C205.289 40.6117 204.009 40.265 202.863 39.5717C201.716 38.8783 200.796 37.8517 200.103 36.4917C199.436 35.1317 199.103 33.465 199.103 31.4917C199.103 29.9717 199.329 28.5183 199.783 27.1317C200.236 25.745 200.916 24.505 201.823 23.4117C202.729 22.2917 203.849 21.4117 205.183 20.7717C206.516 20.1317 208.063 19.8117 209.823 19.8117C211.316 19.8117 212.516 20.1183 213.423 20.7317C214.356 21.3183 214.996 22.025 215.343 22.8517L215.783 20.2917H220.063L217.423 35.0517C223.336 37.5317 231.836 37.3317 232.087 34.2117ZM211.543 35.4917C210.609 36.2117 209.449 36.5717 208.063 36.5717C206.756 36.5717 205.663 36.0917 204.783 35.1317C203.929 34.1717 203.503 32.825 203.503 31.0917C203.503 29.8117 203.756 28.625 204.263 27.5317C204.769 26.4383 205.503 25.5583 206.463 24.8917C207.423 24.1983 208.583 23.8517 209.943 23.8517C211.249 23.8517 212.303 24.2917 213.103 25.1717C213.929 26.0517 214.343 27.3183 214.343 28.9717C214.343 30.2783 214.103 31.5183 213.623 32.6917C213.169 33.8383 212.476 34.7717 211.543 35.4917Z" stroke="black" stroke-width="2"/>
<path fill-rule="evenodd" clip-rule="evenodd" d="M55.7704 54.8936L27.3844 64.1925C23.2946 65.5322 18.7583 63.3502 17.2522 59.3188L7.70117 33.7535C7.12489 32.211 7.21096 30.4904 7.93797 29.013C11.9474 20.8648 13.8379 17.3807 14.7188 16.3155C16.661 13.0455 19.107 11.5925 20.0872 11.2747C21.2113 10.7351 22.2815 10.5609 22.964 10.4824L40.7377 8.43634C40.7399 8.43605 40.7866 8.43005 40.9146 8.40248C40.9805 8.38829 41.0556 8.37114 41.1549 8.34792L41.2454 8.32668L41.2465 8.32643C41.3231 8.30841 41.4153 8.28675 41.4956 8.26824C46.4997 7.11467 51.651 9.59248 53.8733 14.2221C53.9092 14.2968 53.95 14.3827 53.9838 14.454L54.0237 14.538C54.0675 14.6301 54.101 14.6995 54.1311 14.7598C54.1894 14.8768 54.2138 14.9171 54.2151 14.9191L63.7109 30.0822C69.3923 41.4346 66.5428 48.9762 61.8924 51.6003C57.242 54.2245 53.9632 55.4898 56.4558 54.6771C56.2178 54.751 55.9882 54.8222 55.7704 54.8936ZM23.5358 15.4496L42.6187 13.1405C45.3435 12.5123 48.1557 13.865 49.3658 16.3859L49.395 16.4471C49.5772 16.8287 59.4624 32.7445 59.6868 33.1027C59.8296 33.3709 59.9471 33.6513 60.0154 33.9475C60.6931 36.8876 59.0646 39.9295 56.1508 40.9506L34.4449 48.5568C31.3177 49.6527 27.8942 48.006 26.7983 44.8787L19.192 23.1728C18.9153 22.3832 18.8135 21.5747 18.8661 20.7896C19.0079 18.6774 20.268 16.7341 22.251 15.7822C22.6525 15.5895 23.0934 15.5005 23.5358 15.4496Z" fill="black"/>
<path d="M34.7057 34.6169C34.5081 34.9975 34.561 35.46 34.8394 35.7861C35.1179 36.1123 35.5663 36.2371 35.9732 36.1017L39.7994 34.8281C40.0612 34.741 40.2783 34.5546 40.4042 34.309L47.7895 23.7142C47.9189 23.4617 47.9409 23.1676 47.8506 22.8986C47.7602 22.6295 47.5651 22.4084 47.3095 22.2851L36.1429 19.2205L35.2671 18.8882C35.0203 18.7692 30.9107 20.0246 30.6508 20.1111C30.2436 20.2467 29.9593 20.6158 29.9322 21.0441C29.9052 21.4725 30.1408 21.8744 30.5278 22.0601L40.6662 25.3387L34.7057 34.6169Z" fill="black"/>
</svg>
